<svg xmlns="http://www.w3.org/2000/svg" version="1" viewBox="0 0 590 590">
  <path fill="#95e1d3" d="M236 412c8-1 14-5 19-12l58-90 40 85a25 25 0 0 0 23 14c10 1 18-3 23-12l100-176c4-7 4-13 3-20s-6-12-12-16a28 28 0 0 0-36 10l-75 132-39-82c-4-9-12-14-22-15-5 0-9 1-13 3s-8 5-11 9l-66 103-30-30c-4-4-10-7-17-7-6-1-12 1-18 5l-61 52c-6 4-9 10-10 17s1 14 6 19 10 9 17 10 14-2 20-6l44-37 36 37c4 4 10 7 18 7h3zm281-268H73v302h444V144zM36 518c-10 0-18-3-25-10S0 492 0 482V108c0-10 4-19 11-26s15-10 25-10h518c10 0 18 3 25 10s11 16 11 26v374c0 10-4 19-11 26s-15 10-25 10H36z"/>
</svg>
