<svg xmlns="http://www.w3.org/2000/svg" xmlns:xlink="http://www.w3.org/1999/xlink" id="svg" viewBox="0 0 64 64">  
    <g enable-background="new"><path d="M10.76 32.73l11 5c.377.172.797.27 1.24.27 1.657 0 3-1.343 3-3 0-1.214-.72-2.26-1.76-2.73l-11-5c-.377-.173-.797-.27-1.24-.27-1.657 0-3 1.343-3 3 0 1.214.72 2.26 1.76 2.73zm0 11l11 5c.377.172.797.27 1.24.27 1.657 0 3-1.343 3-3 0-1.214-.72-2.26-1.76-2.73l-11-5c-.377-.172-.797-.27-1.24-.27-1.657 0-3 1.343-3 3 0 1.214.72 2.26 1.76 2.73zm0-22l11 5c.377.173.797.27 1.24.27 1.657 0 3-1.343 3-3 0-1.214-.72-2.26-1.76-2.73l-11-5c-.377-.173-.797-.27-1.24-.27-1.657 0-3 1.343-3 3 0 1.214.72 2.26 1.76 2.73zM41 49c.443 0 .863-.098 1.24-.27l11-5C54.28 43.26 55 42.214 55 41c0-1.657-1.343-3-3-3-.443 0-.863.098-1.24.27l-11 5C38.72 43.74 38 44.786 38 46c0 1.657 1.343 3 3 3zM61 0c-.406 0-.794.082-1.146.228l-.006.002-.027.01L32 11.754 4.18.24C4.17.238 4.16.235 4.15.23L4.147.228C3.794.082 3.407 0 3 0 1.343 0 0 1.343 0 3v46c0 1.257.774 2.333 1.87 2.78l28.943 11.976c.364.157.765.244 1.187.244s.823-.087 1.188-.245l28.94-11.976C63.23 51.332 64 50.256 64 49V3c0-1.657-1.343-3-3-3zM29 56.512L6 46.995V7.488l23 9.517v39.507zm29-9.517l-23 9.517V17.005l23-9.517v39.507zM41 38c.443 0 .863-.098 1.24-.27l11-5C54.28 32.26 55 31.214 55 30c0-1.657-1.343-3-3-3-.443 0-.863.097-1.24.27l-11 5C38.72 32.74 38 33.785 38 35c0 1.657 1.343 3 3 3zm0-11c.443 0 .863-.097 1.24-.27l11-5C54.28 21.26 55 20.215 55 19c0-1.657-1.343-3-3-3-.443 0-.863.097-1.24.27l-11 5C38.72 21.74 38 22.785 38 24c0 1.657 1.343 3 3 3z" fill="#95e1d3"/></g>
  </svg>