  <svg xmlns="http://www.w3.org/2000/svg" xmlns:xlink="http://www.w3.org/1999/xlink" id="svg">
  <symbol viewBox="0 0 64 64" id="book-icon">
    <g enable-background="new"><path d="M10.76 32.73l11 5c.377.172.797.27 1.24.27 1.657 0 3-1.343 3-3 0-1.214-.72-2.26-1.76-2.73l-11-5c-.377-.173-.797-.27-1.24-.27-1.657 0-3 1.343-3 3 0 1.214.72 2.26 1.76 2.73zm0 11l11 5c.377.172.797.27 1.24.27 1.657 0 3-1.343 3-3 0-1.214-.72-2.26-1.76-2.73l-11-5c-.377-.172-.797-.27-1.24-.27-1.657 0-3 1.343-3 3 0 1.214.72 2.26 1.76 2.73zm0-22l11 5c.377.173.797.27 1.24.27 1.657 0 3-1.343 3-3 0-1.214-.72-2.26-1.76-2.73l-11-5c-.377-.173-.797-.27-1.24-.27-1.657 0-3 1.343-3 3 0 1.214.72 2.26 1.76 2.73zM41 49c.443 0 .863-.098 1.24-.27l11-5C54.28 43.26 55 42.214 55 41c0-1.657-1.343-3-3-3-.443 0-.863.098-1.24.27l-11 5C38.72 43.74 38 44.786 38 46c0 1.657 1.343 3 3 3zM61 0c-.406 0-.794.082-1.146.228l-.006.002-.027.01L32 11.754 4.18.24C4.17.238 4.16.235 4.15.23L4.147.228C3.794.082 3.407 0 3 0 1.343 0 0 1.343 0 3v46c0 1.257.774 2.333 1.87 2.78l28.943 11.976c.364.157.765.244 1.187.244s.823-.087 1.188-.245l28.94-11.976C63.23 51.332 64 50.256 64 49V3c0-1.657-1.343-3-3-3zM29 56.512L6 46.995V7.488l23 9.517v39.507zm29-9.517l-23 9.517V17.005l23-9.517v39.507zM41 38c.443 0 .863-.098 1.24-.27l11-5C54.28 32.26 55 31.214 55 30c0-1.657-1.343-3-3-3-.443 0-.863.097-1.24.27l-11 5C38.72 32.74 38 33.785 38 35c0 1.657 1.343 3 3 3zm0-11c.443 0 .863-.097 1.24-.27l11-5C54.28 21.26 55 20.215 55 19c0-1.657-1.343-3-3-3-.443 0-.863.097-1.24.27l-11 5C38.72 21.74 38 22.785 38 24c0 1.657 1.343 3 3 3z"/></g>
  </symbol>
  <symbol viewBox="0 0 512 512" id="shopping-cart">
  <path d="M153 408c-28 0-51 23-51 51s23 51 51 51 51-23 51-51-23-51-51-51zM0 0v51h51l92 194-36 61c-2 8-5 18-5 26 0 28 23 51 51 51h306v-51H163c-2 0-5-3-5-6v-2l23-44h189c20 0 35-10 43-25l92-166c5-5 5-7 5-12 0-16-10-26-25-26H107L84 0H0zm408 408c-28 0-51 23-51 51s23 51 51 51 51-23 51-51-23-51-51-51z"/>
  </symbol>
  <symbol viewBox="0 0 410 410" id="search">
  <path d="M401.625 364.092l-107.1-107.1c19.125-26.775 30.6-59.288 30.6-93.713C325.125 73.391 252.45.717 162.563.717S0 73.392 0 163.279s72.675 162.562 162.562 162.562c34.425 0 66.938-11.475 93.713-30.6l107.1 107.1c9.562 9.562 26.775 9.562 38.25 0 11.475-11.474 11.475-26.775 0-38.249zm-239.063-76.5c-68.85 0-124.312-55.463-124.312-124.312 0-68.85 55.462-124.312 124.312-124.312S286.874 94.43 286.874 163.28c.001 68.849-55.462 124.312-124.312 124.312z"/>
  </symbol>
  <symbol viewBox="0 0 46 46" id="clock">
  <g>
		<path d="M5.081,13.737c2.582-3.942,6.609-6.849,11.32-7.988c0.363-0.087,0.662-0.344,0.802-0.689    c0.141-0.346,0.107-0.738-0.091-1.055C15.604,1.601,12.936,0,9.888,0C5.176,0,1.354,3.82,1.354,8.532c0,2,0.691,3.837,1.845,5.29    c0.231,0.293,0.589,0.455,0.962,0.438S4.877,14.048,5.081,13.737z"/>
		<path d="M35.886,0c-3.034,0-5.693,1.586-7.204,3.974c-0.2,0.316-0.235,0.711-0.094,1.059c0.142,0.349,0.442,0.605,0.809,0.691    c4.724,1.112,8.765,3.999,11.369,7.928c0.207,0.312,0.552,0.505,0.927,0.518c0.375,0.014,0.731-0.154,0.961-0.451    c1.105-1.436,1.766-3.232,1.766-5.186C44.417,3.82,40.598,0,35.886,0z"/>
		<path d="M41.752,26.132c0-3.294-0.857-6.39-2.351-9.084c-2.769-4.99-7.742-8.577-13.595-9.475c-0.933-0.143-1.88-0.24-2.853-0.24    c-1.016,0-2.006,0.104-2.979,0.26C14.146,8.528,9.198,12.13,6.458,17.126c-1.467,2.676-2.304,5.744-2.304,9.006    c0,5.586,2.463,10.597,6.343,14.041l-1.584,2.231c-0.682,0.961-0.456,2.291,0.505,2.975c0.375,0.266,0.806,0.395,1.233,0.395    c0.668,0,1.326-0.313,1.741-0.898l1.583-2.23c2.669,1.457,5.728,2.287,8.978,2.287c3.249,0,6.308-0.83,8.977-2.287l1.583,2.23    c0.416,0.586,1.073,0.898,1.741,0.898c0.427,0,0.857-0.129,1.232-0.395c0.961-0.684,1.188-2.014,0.506-2.975l-1.584-2.231    C39.288,36.729,41.752,31.718,41.752,26.132z M22.954,39.674c-7.468,0-13.542-6.074-13.542-13.542    c0-2.328,0.591-4.519,1.629-6.435c1.976-3.644,5.58-6.269,9.826-6.93c0.682-0.106,1.375-0.178,2.087-0.178    c0.67,0,1.325,0.065,1.97,0.16c4.282,0.628,7.925,3.253,9.924,6.913c1.05,1.923,1.647,4.126,1.647,6.469    C36.495,33.6,30.421,39.674,22.954,39.674z"/>
		<path d="M30.54,29.3l-5.166-3.19c-0.107-0.604-0.434-1.125-0.893-1.494l0.236-6.482c0.029-0.828-0.617-1.523-1.444-1.554    c-0.825-0.038-1.523,0.616-1.554,1.444l-0.237,6.489c-0.641,0.452-1.063,1.196-1.063,2.041c0,1.381,1.119,2.499,2.5,2.499    c0.393,0,0.76-0.099,1.09-0.26l4.955,3.062c0.246,0.15,0.519,0.223,0.787,0.223c0.503,0,0.993-0.252,1.278-0.711    C31.465,30.66,31.245,29.736,30.54,29.3z"/>	
  </g>
  </symbol>
  <symbol viewBox="0 0 590 590" id="graph">
  <path d="M236 412c8-1 14-5 19-12l58-90 40 85a25 25 0 0 0 23 14c10 1 18-3 23-12l100-176c4-7 4-13 3-20s-6-12-12-16a28 28 0 0 0-36 10l-75 132-39-82c-4-9-12-14-22-15-5 0-9 1-13 3s-8 5-11 9l-66 103-30-30c-4-4-10-7-17-7-6-1-12 1-18 5l-61 52c-6 4-9 10-10 17s1 14 6 19 10 9 17 10 14-2 20-6l44-37 36 37c4 4 10 7 18 7h3zm281-268H73v302h444V144zM36 518c-10 0-18-3-25-10S0 492 0 482V108c0-10 4-19 11-26s15-10 25-10h518c10 0 18 3 25 10s11 16 11 26v374c0 10-4 19-11 26s-15 10-25 10H36z"/></symbol>
  <symbol viewBox="0 0 612 612" id="house">
  <g>
    <path d="M74 295v278h245V367h129v206h88V295L305 123 74 295zm177 181H142V367h109v109z"/>
    <path d="M606 260l-69-46V87h-81v66L304 39 6 260a16 16 0 0 0 19 25L304 78l283 207a16 16 0 0 0 22-3c5-7 4-17-3-22z"/>
  </g>
  </symbol>
  <symbol viewBox="0 0 360 360" id="monitor">
  <g>
    <path d="M231 291H129l-33 32v9l2 2h164l2-2v-9l-33-32zM353 26H7c-4 0-7 3-7 7v245c0 4 3 7 7 7h346c4 0 7-3 7-7V33c0-4-3-7-7-7zM180 272a8 8 0 1 1 0-16 8 8 0 0 1 0 16zm151-32H29V60h302v180z"/>
    <path d="M160 198a2 2 0 0 0 3 0l88-87a2 2 0 0 0 0-3l-19-18h-3l-68 68-30-31h-3l-19 18a2 2 0 0 0 0 3l51 50z"/>
  </g></symbol>
  <symbol viewBox="0 0 24 24" id="frame">
  <g>
	<path d="M23,0.6H1c-0.221,0-0.4,0.18-0.4,0.4v22c0,0.221,0.18,0.4,0.4,0.4h22c0.221,0,0.4-0.18,0.4-0.4V1   C23.4,0.779,23.221,0.6,23,0.6z M22.6,22.6H1.4V1.4H22.6V22.6z"/>
	<path d="M16.6,3.8h3.6v3.559c0,0.221,0.18,0.399,0.4,0.399S21,7.579,21,7.358V3.4C21,3.18,20.82,3,20.6,3h-4   c-0.221,0-0.4,0.18-0.4,0.4S16.379,3.8,16.6,3.8z"/>
	<path d="M3.4,21h4c0.221,0,0.4-0.178,0.4-0.398s-0.18-0.4-0.4-0.4h-3.6v-3.559c0-0.221-0.18-0.4-0.4-0.4s-0.4,0.18-0.4,0.4v3.959   C3,20.822,3.18,21,3.4,21z"/>
	<path d="M3.4,7.758c0.221,0,0.4-0.179,0.4-0.399V3.8h3.6c0.221,0,0.4-0.179,0.4-0.399S7.621,3,7.4,3h-4C3.18,3,3,3.18,3,3.4v3.958   C3,7.579,3.18,7.758,3.4,7.758z"/>
	<path d="M16.6,21h4c0.221,0,0.4-0.178,0.4-0.398v-3.959c0-0.221-0.18-0.4-0.4-0.4s-0.4,0.18-0.4,0.4v3.559h-3.6   c-0.221,0-0.4,0.18-0.4,0.4S16.379,21,16.6,21z"/>
</g>
  </symbol>
  <symbol viewBox="0 0 512 512" id="facebook">
  <path d="M288 176v-64c0-18 14-32 32-32h32V0h-64c-53 0-96 43-96 96v80h-64v80h64v256h96V256h64l32-80h-96z"/>
  </symbol>
  <symbol viewBox="0 0 612 612" id="twitter">
  <path d="M612 116c-23 10-47 17-72 20 26-15 46-40 55-69-24 14-51 24-80 30a125 125 0 0 0-217 86c0 10 1 19 3 29-104-6-196-56-258-132a125 125 0 0 0 39 168c-21-1-40-6-57-16v2c0 61 43 111 100 123a127 127 0 0 1-56 2c16 50 62 86 117 87A252 252 0 0 1 0 498a355 355 0 0 0 550-301l-1-16c25-17 46-40 63-65z"/>
  </symbol>
  <symbol viewBox="0 0 310 310" id="pinterest">
  <path d="M245 32c-21-21-51-32-83-32-49 0-80 20-96 37-21 21-33 49-33 76 0 35 15 61 39 71l5 1c5 0 9-3 10-9l4-13c1-7 0-10-4-15-7-8-10-18-10-30 0-38 28-78 80-78 42 0 67 23 67 61 0 24-5 46-14 62-7 12-18 25-36 25-7 0-14-3-18-8s-6-12-4-19l7-24c4-14 8-28 8-39 0-18-11-31-28-31-21 0-38 22-38 50 0 14 3 24 5 28l-22 93c-2 7-12 67 5 72 20 5 38-53 40-59l9-38c10 9 25 15 40 15 29 0 54-13 72-36 17-22 27-53 27-88 0-26-12-53-32-72z"/></symbol>
  <symbol viewBox="0 0 97 97" id="instagram">
  <path d="M13 0h72c7 0 12 5 12 13v72c0 7-5 12-12 12H13C6 97 0 92 0 85V13C0 5 6 0 13 0zm58 11c-2 0-4 2-4 4v11c0 2 2 4 4 4h11c2 0 4-2 4-4V15c0-2-2-4-4-4H71zm15 30h-8l1 9c0 16-13 29-30 29S19 66 19 50l1-9h-9v41c0 2 2 4 4 4h68c2 0 3-2 3-4V41zM49 30c-11 0-20 8-20 18 0 11 9 19 20 19s19-8 19-19c0-10-8-18-19-18z"/>
  </symbol>
  </svg>