<svg xmlns="http://www.w3.org/2000/svg" id="svg" viewBox="0 0 64 64"><path d="M10.76 32.73l11 5a3 3 0 0 0 2.48-5.46l-11-5a3 3 0 0 0-2.48 5.46zm0 11l11 5a3 3 0 0 0 2.48-5.46l-11-5a3 3 0 0 0-2.48 5.46zm0-22l11 5a3 3 0 0 0 2.48-5.46l-11-5a3 3 0 0 0-2.48 5.46zM41 49c.443 0 .863-.098 1.24-.27l11-5a3 3 0 1 0-2.48-5.46l-11 5A3 3 0 0 0 41 49zM61 0c-.406 0-.794.082-1.146.228l-.006.002-.027.01L32 11.754 4.18.24a.118.118 0 0 1-.03-.01L4.147.228A3 3 0 0 0 0 3v46c0 1.257.774 2.333 1.87 2.78l28.943 11.976c.364.157.765.244 1.187.244s.823-.087 1.188-.245l28.94-11.976A2.996 2.996 0 0 0 64 49V3a3 3 0 0 0-3-3zM29 56.512L6 46.995V7.488l23 9.517v39.507zm29-9.517l-23 9.517V17.005l23-9.517v39.507zM41 38c.443 0 .863-.098 1.24-.27l11-5a3 3 0 1 0-2.48-5.46l-11 5A3 3 0 0 0 41 38zm0-11c.443 0 .863-.097 1.24-.27l11-5a3 3 0 1 0-2.48-5.46l-11 5A3 3 0 0 0 41 27z" fill="#95e1d3"/></svg>