<svg xmlns="http://www.w3.org/2000/svg" baseProfile="tiny" id="Layer_1" width="512" height="512" viewBox="0 0 24 24"><g fill="#95e1d3"><path d="M23 .6H1a.4.4 0 0 0-.4.4v22c0 .221.18.4.4.4h22a.4.4 0 0 0 .4-.4V1a.4.4 0 0 0-.4-.4zm-.4 22H1.4V1.4h21.2v21.2z"/><path d="M16.6 3.8h3.6v3.559a.4.4 0 0 0 .8-.001V3.4c0-.22-.18-.4-.4-.4h-4a.4.4 0 0 0 0 .8zM3.4 21h4a.399.399 0 1 0 0-.798H3.8v-3.559a.4.4 0 0 0-.8 0v3.959a.4.4 0 0 0 .4.398zm0-13.242a.4.4 0 0 0 .4-.399V3.8h3.6a.4.4 0 1 0 0-.8h-4c-.22 0-.4.18-.4.4v3.958c0 .221.18.4.4.4zM16.6 21h4c.221 0 .4-.178.4-.398v-3.959a.4.4 0 0 0-.8 0v3.559h-3.6a.399.399 0 1 0 0 .798z"/></g></svg>