<?xml version="1.0" encoding="iso-8859-1"?>
<!-- Generator: Adobe Illustrator 16.0.0, SVG Export Plug-In . SVG Version: 6.00 Build 0)  -->
<!DOCTYPE svg PUBLIC "-//W3C//DTD SVG 1.1//EN" "http://www.w3.org/Graphics/SVG/1.1/DTD/svg11.dtd">
<svg xmlns="http://www.w3.org/2000/svg" xmlns:xlink="http://www.w3.org/1999/xlink" version="1.1" id="Capa_1" x="0px" y="0px" width="512px" height="512px" viewBox="0 0 473.031 473.031" style="enable-background:new 0 0 473.031 473.031;" xml:space="preserve">
<g>
	<g>
		<path d="M467.605,353.397l-72.67-41.957c-5.188-3.003-11.832-1.217-14.824,3.973c-2.998,5.19-1.219,11.828,3.973,14.826    l37.58,21.698h-97.793L137.805,103.73c-2.049-2.734-5.267-4.343-8.685-4.343H10.854C4.86,99.388,0,104.248,0,110.241    c0,5.994,4.859,10.854,10.854,10.854h112.838l186.066,248.207c2.047,2.733,5.266,4.343,8.684,4.343h103.234l-37.594,21.699    c-5.189,2.995-6.971,9.633-3.973,14.826c2.01,3.481,5.658,5.43,9.41,5.43c1.842,0,3.707-0.469,5.416-1.457l72.67-41.947    c3.357-1.938,5.426-5.52,5.426-9.397S470.963,355.336,467.605,353.397z" fill="#FFFFFF"/>
		<path d="M238.62,216.158c1.956,1.476,4.248,2.186,6.524,2.186c3.289,0,6.541-1.492,8.676-4.322l70.031-92.927h97.812    l-37.58,21.699c-5.191,2.998-6.971,9.635-3.973,14.827c2.012,3.481,5.656,5.429,9.41,5.429c1.84,0,3.705-0.469,5.414-1.458    l72.67-41.958c3.357-1.939,5.426-5.522,5.426-9.399c0-3.879-2.066-7.462-5.426-9.399l-72.67-41.947    c-5.188-3-11.832-1.216-14.824,3.972c-2.998,5.193-1.219,11.831,3.973,14.826l37.594,21.7H318.441    c-3.408,0-6.617,1.601-8.668,4.322l-73.289,97.249C232.874,205.744,233.832,212.552,238.62,216.158z" fill="#FFFFFF"/>
		<path d="M208.974,256.275c-4.797-3.596-11.602-2.62-15.194,2.174l-70.088,93.488H10.854C4.86,351.937,0,356.796,0,362.792    c0,5.994,4.859,10.854,10.854,10.854h118.267c3.418,0,6.636-1.607,8.685-4.343l73.342-97.832    C214.743,266.673,213.77,259.871,208.974,256.275z" fill="#FFFFFF"/>
	</g>
</g>
<g>
</g>
<g>
</g>
<g>
</g>
<g>
</g>
<g>
</g>
<g>
</g>
<g>
</g>
<g>
</g>
<g>
</g>
<g>
</g>
<g>
</g>
<g>
</g>
<g>
</g>
<g>
</g>
<g>
</g>
</svg>
